<svg width="784" height="552" viewBox="0 0 784 552" fill="none" xmlns="http://www.w3.org/2000/svg">
<g filter="url(#filter0_n_5944_1516)">
<circle cx="419" cy="282" r="250" fill="black" fill-opacity="0.2"/>
</g>
<path d="M493.469 102.4C502.726 101.84 511.266 102.892 519.09 105.559C505.618 100.606 490.308 98.2135 473.159 98.3805L360.052 100.968C328.973 102.899 302.604 116.949 280.947 143.117C251.515 182.06 229.633 222.777 215.301 265.268C205.646 293.88 212.565 321.771 236.058 348.941L301.289 430.134C310.857 440.15 319.058 447.981 325.892 453.627C311.539 440.492 305.105 416.278 306.59 380.983C307.419 373.811 308.43 366.706 309.624 359.666C314.318 331.85 325.279 298.365 342.506 259.209C351.594 238.542 361.387 219.67 371.882 202.594C383.231 184.118 396.473 165.95 411.607 148.09C415.83 143.1 420.295 138.456 425 134.16C428.947 130.571 433.063 127.223 437.347 124.117C446.382 117.584 455.745 112.458 465.437 108.739C474.976 105.068 484.32 102.955 493.469 102.4Z" fill="url(#paint0_linear_5944_1516)"/>
<path d="M625.005 346.476C628.464 342.47 631.351 338.392 633.667 334.243C620.022 349.916 592.488 357.342 551.065 356.522L309.647 359.653C308.453 366.693 307.441 373.799 306.613 380.971C305.128 416.265 311.562 440.479 325.915 453.614C328.003 455.34 330.143 456.951 332.336 458.449C332.376 458.475 332.427 458.508 332.488 458.547C342.044 465.012 353.194 469.572 365.936 472.226C382.752 475.697 401.808 476.888 423.103 475.798C439.235 474.978 459.622 472.567 484.262 468.564C498.64 466.277 510.547 463.154 519.98 459.195C530.889 454.605 540.718 448.08 549.468 439.623L625.005 346.476Z" fill="url(#paint1_linear_5944_1516)"/>
<path d="M519.059 105.562C511.235 102.896 502.695 101.843 493.438 102.403C484.289 102.959 474.945 105.072 465.406 108.742C455.714 112.462 446.351 117.588 437.316 124.12C433.032 127.227 428.916 130.574 424.969 134.163C490.069 201.088 532.083 275.212 551.011 356.538C592.434 357.358 619.969 349.932 633.614 334.259C641.712 319.642 643.57 303.774 639.187 286.656C632.652 260.893 620.498 232.087 602.725 200.24C587.026 172.086 570.817 148.099 554.097 128.278C550.773 124.341 546.889 120.812 542.446 117.691C538.967 115.234 534.568 112.665 529.247 109.984C525.981 108.328 522.585 106.854 519.059 105.562Z" fill="url(#paint2_linear_5944_1516)"/>
<rect x="286" width="266" height="69" rx="12" fill="#FF9155" fill-opacity="0.8"/>
<path d="M309.157 48.54C306.577 48.54 304.411 47.97 302.659 46.83C300.907 45.678 299.587 44.088 298.699 42.06C297.811 40.032 297.367 37.692 297.367 35.04C297.367 32.388 297.811 30.048 298.699 28.02C299.587 25.992 300.907 24.408 302.659 23.268C304.411 22.116 306.577 21.54 309.157 21.54C312.169 21.54 314.611 22.32 316.483 23.88C318.367 25.44 319.645 27.528 320.317 30.144L318.175 30.666C317.623 28.494 316.591 26.772 315.079 25.5C313.579 24.216 311.605 23.574 309.157 23.574C307.033 23.574 305.263 24.06 303.847 25.032C302.443 26.004 301.381 27.354 300.661 29.082C299.953 30.81 299.593 32.796 299.581 35.04C299.557 37.284 299.899 39.27 300.607 40.998C301.327 42.714 302.401 44.064 303.829 45.048C305.257 46.02 307.033 46.506 309.157 46.506C311.605 46.506 313.579 45.864 315.079 44.58C316.591 43.296 317.623 41.574 318.175 39.414L320.317 39.936C319.645 42.552 318.367 44.64 316.483 46.2C314.611 47.76 312.169 48.54 309.157 48.54ZM338.498 48V37.884C338.498 36.66 338.372 35.568 338.12 34.608C337.88 33.648 337.508 32.832 337.004 32.16C336.512 31.488 335.888 30.978 335.132 30.63C334.388 30.282 333.506 30.108 332.486 30.108C331.43 30.108 330.512 30.294 329.732 30.666C328.964 31.026 328.328 31.536 327.824 32.196C327.332 32.856 326.96 33.642 326.708 34.554C326.468 35.454 326.348 36.438 326.348 37.506L324.71 37.308C324.71 35.208 325.064 33.48 325.772 32.124C326.492 30.756 327.458 29.748 328.67 29.1C329.882 28.44 331.244 28.11 332.756 28.11C333.824 28.11 334.778 28.266 335.618 28.578C336.47 28.89 337.208 29.334 337.832 29.91C338.456 30.474 338.972 31.146 339.38 31.926C339.788 32.694 340.088 33.54 340.28 34.464C340.484 35.388 340.586 36.354 340.586 37.362V48H338.498ZM324.26 48V22.08H326.15V37.056H326.348V48H324.26ZM350.865 48.54C349.365 48.54 348.117 48.276 347.121 47.748C346.137 47.22 345.399 46.524 344.907 45.66C344.415 44.784 344.169 43.836 344.169 42.816C344.169 41.712 344.397 40.788 344.853 40.044C345.321 39.3 345.939 38.7 346.707 38.244C347.487 37.788 348.345 37.446 349.281 37.218C350.349 36.978 351.501 36.774 352.737 36.606C353.973 36.426 355.149 36.27 356.265 36.138C357.393 36.006 358.311 35.892 359.019 35.796L358.263 36.246C358.311 34.146 357.915 32.586 357.075 31.566C356.247 30.534 354.783 30.018 352.683 30.018C351.207 30.018 349.989 30.354 349.029 31.026C348.081 31.686 347.415 32.712 347.031 34.104L344.907 33.51C345.351 31.746 346.245 30.39 347.589 29.442C348.933 28.494 350.655 28.02 352.755 28.02C354.543 28.02 356.043 28.368 357.255 29.064C358.479 29.76 359.331 30.738 359.811 31.998C360.015 32.514 360.153 33.12 360.225 33.816C360.297 34.5 360.333 35.19 360.333 35.886V48H358.443V42.888L359.145 43.068C358.557 44.82 357.531 46.17 356.067 47.118C354.603 48.066 352.869 48.54 350.865 48.54ZM350.973 46.632C352.293 46.632 353.451 46.398 354.447 45.93C355.443 45.45 356.247 44.784 356.859 43.932C357.483 43.068 357.879 42.054 358.047 40.89C358.167 40.242 358.233 39.54 358.245 38.784C358.257 38.028 358.263 37.47 358.263 37.11L359.163 37.686C358.383 37.782 357.447 37.884 356.355 37.992C355.275 38.1 354.171 38.232 353.043 38.388C351.915 38.544 350.895 38.742 349.983 38.982C349.419 39.138 348.849 39.366 348.273 39.666C347.709 39.954 347.235 40.356 346.851 40.872C346.479 41.388 346.293 42.042 346.293 42.834C346.293 43.422 346.437 44.01 346.725 44.598C347.025 45.186 347.517 45.672 348.201 46.056C348.885 46.44 349.809 46.632 350.973 46.632ZM379.244 48V37.884C379.244 36.66 379.118 35.568 378.866 34.608C378.626 33.648 378.254 32.832 377.75 32.16C377.258 31.488 376.634 30.978 375.878 30.63C375.134 30.282 374.252 30.108 373.232 30.108C372.176 30.108 371.258 30.294 370.478 30.666C369.71 31.026 369.074 31.536 368.57 32.196C368.078 32.856 367.706 33.642 367.454 34.554C367.214 35.454 367.094 36.438 367.094 37.506L365.456 37.308C365.456 35.208 365.81 33.48 366.518 32.124C367.238 30.756 368.204 29.748 369.416 29.1C370.628 28.44 371.99 28.11 373.502 28.11C374.57 28.11 375.524 28.266 376.364 28.578C377.216 28.89 377.954 29.334 378.578 29.91C379.202 30.474 379.718 31.146 380.126 31.926C380.534 32.694 380.834 33.54 381.026 34.464C381.23 35.388 381.332 36.354 381.332 37.362V48H379.244ZM365.006 48V28.56H366.896V32.934H367.094V48H365.006ZM393.555 57.18C392.595 57.18 391.635 57.036 390.675 56.748C389.727 56.472 388.839 56.016 388.011 55.38C387.183 54.756 386.481 53.922 385.905 52.878L387.777 51.762C388.365 52.962 389.199 53.82 390.279 54.336C391.359 54.852 392.457 55.11 393.573 55.11C395.145 55.11 396.387 54.816 397.299 54.228C398.223 53.652 398.883 52.782 399.279 51.618C399.675 50.466 399.873 49.032 399.873 47.316V42.222H400.089V28.56H401.979V47.316C401.979 47.892 401.967 48.444 401.943 48.972C401.919 49.5 401.865 50.028 401.781 50.556C401.565 52.056 401.121 53.292 400.449 54.264C399.777 55.248 398.865 55.98 397.713 56.46C396.573 56.94 395.187 57.18 393.555 57.18ZM393.465 48.54C391.629 48.54 390.075 48.09 388.803 47.19C387.543 46.278 386.577 45.048 385.905 43.5C385.245 41.94 384.915 40.188 384.915 38.244C384.915 36.324 385.245 34.59 385.905 33.042C386.565 31.494 387.513 30.27 388.749 29.37C389.997 28.47 391.503 28.02 393.267 28.02C395.079 28.02 396.609 28.464 397.857 29.352C399.105 30.24 400.047 31.458 400.683 33.006C401.319 34.542 401.637 36.288 401.637 38.244C401.637 40.188 401.319 41.934 400.683 43.482C400.047 45.03 399.123 46.26 397.911 47.172C396.699 48.084 395.217 48.54 393.465 48.54ZM393.591 46.56C395.043 46.56 396.249 46.2 397.209 45.48C398.181 44.748 398.901 43.758 399.369 42.51C399.849 41.25 400.089 39.828 400.089 38.244C400.089 36.648 399.849 35.226 399.369 33.978C398.889 32.73 398.169 31.758 397.209 31.062C396.249 30.354 395.055 30 393.627 30C392.151 30 390.933 30.366 389.973 31.098C389.013 31.818 388.299 32.802 387.831 34.05C387.363 35.286 387.129 36.684 387.129 38.244C387.129 39.816 387.369 41.232 387.849 42.492C388.341 43.74 389.061 44.73 390.009 45.462C390.969 46.194 392.163 46.56 393.591 46.56ZM415.028 48.54C413.168 48.54 411.56 48.126 410.204 47.298C408.848 46.458 407.798 45.276 407.054 43.752C406.31 42.216 405.938 40.404 405.938 38.316C405.938 36.192 406.304 34.362 407.036 32.826C407.78 31.278 408.824 30.09 410.168 29.262C411.524 28.434 413.132 28.02 414.992 28.02C416.876 28.02 418.484 28.452 419.816 29.316C421.16 30.168 422.18 31.404 422.876 33.024C423.584 34.644 423.92 36.594 423.884 38.874H421.724V38.154C421.664 35.49 421.064 33.462 419.924 32.07C418.784 30.678 417.152 29.982 415.028 29.982C412.832 29.982 411.134 30.708 409.934 32.16C408.746 33.6 408.152 35.64 408.152 38.28C408.152 40.896 408.746 42.924 409.934 44.364C411.134 45.804 412.82 46.524 414.992 46.524C416.492 46.524 417.8 46.176 418.916 45.48C420.044 44.772 420.938 43.764 421.598 42.456L423.47 43.284C422.69 44.964 421.562 46.26 420.086 47.172C418.61 48.084 416.924 48.54 415.028 48.54ZM407.36 38.874V37.002H422.714V38.874H407.36ZM450.468 48L450.504 34.932C450.504 33.36 450.054 32.13 449.154 31.242C448.266 30.342 447.156 29.892 445.824 29.892C445.068 29.892 444.318 30.066 443.574 30.414C442.842 30.762 442.23 31.326 441.738 32.106C441.246 32.886 441 33.942 441 35.274L439.542 35.04C439.494 33.624 439.752 32.394 440.316 31.35C440.892 30.294 441.684 29.478 442.692 28.902C443.712 28.326 444.87 28.038 446.166 28.038C448.074 28.038 449.616 28.626 450.792 29.802C451.98 30.978 452.574 32.586 452.574 34.626L452.538 48H450.468ZM427.338 48V28.56H429.228V32.934H429.408V48H427.338ZM438.912 48L438.948 35.13C438.948 33.522 438.51 32.25 437.634 31.314C436.758 30.366 435.618 29.892 434.214 29.892C432.786 29.892 431.628 30.384 430.74 31.368C429.852 32.34 429.408 33.642 429.408 35.274L427.968 34.554C427.968 33.294 428.256 32.178 428.832 31.206C429.408 30.222 430.194 29.448 431.19 28.884C432.198 28.32 433.35 28.038 434.646 28.038C435.81 28.038 436.872 28.284 437.832 28.776C438.792 29.268 439.56 30.012 440.136 31.008C440.712 31.992 441 33.228 441 34.716L440.964 48H438.912ZM462.872 48.54C461.372 48.54 460.124 48.276 459.128 47.748C458.144 47.22 457.406 46.524 456.914 45.66C456.422 44.784 456.176 43.836 456.176 42.816C456.176 41.712 456.404 40.788 456.86 40.044C457.328 39.3 457.946 38.7 458.714 38.244C459.494 37.788 460.352 37.446 461.288 37.218C462.356 36.978 463.508 36.774 464.744 36.606C465.98 36.426 467.156 36.27 468.272 36.138C469.4 36.006 470.318 35.892 471.026 35.796L470.27 36.246C470.318 34.146 469.922 32.586 469.082 31.566C468.254 30.534 466.79 30.018 464.69 30.018C463.214 30.018 461.996 30.354 461.036 31.026C460.088 31.686 459.422 32.712 459.038 34.104L456.914 33.51C457.358 31.746 458.252 30.39 459.596 29.442C460.94 28.494 462.662 28.02 464.762 28.02C466.55 28.02 468.05 28.368 469.262 29.064C470.486 29.76 471.338 30.738 471.818 31.998C472.022 32.514 472.16 33.12 472.232 33.816C472.304 34.5 472.34 35.19 472.34 35.886V48H470.45V42.888L471.152 43.068C470.564 44.82 469.538 46.17 468.074 47.118C466.61 48.066 464.876 48.54 462.872 48.54ZM462.98 46.632C464.3 46.632 465.458 46.398 466.454 45.93C467.45 45.45 468.254 44.784 468.866 43.932C469.49 43.068 469.886 42.054 470.054 40.89C470.174 40.242 470.24 39.54 470.252 38.784C470.264 38.028 470.27 37.47 470.27 37.11L471.17 37.686C470.39 37.782 469.454 37.884 468.362 37.992C467.282 38.1 466.178 38.232 465.05 38.388C463.922 38.544 462.902 38.742 461.99 38.982C461.426 39.138 460.856 39.366 460.28 39.666C459.716 39.954 459.242 40.356 458.858 40.872C458.486 41.388 458.3 42.042 458.3 42.834C458.3 43.422 458.444 44.01 458.732 44.598C459.032 45.186 459.524 45.672 460.208 46.056C460.892 46.44 461.816 46.632 462.98 46.632ZM477.014 48V22.08H479.102V37.92L488.3 28.56H491.198L481.568 38.28L492.566 48H489.344L479.102 38.64V48H477.014ZM494.741 24.636V21.99H496.811V24.636H494.741ZM494.741 48V28.56H496.811V48H494.741ZM516.459 48V37.884C516.459 36.66 516.333 35.568 516.081 34.608C515.841 33.648 515.469 32.832 514.965 32.16C514.473 31.488 513.849 30.978 513.093 30.63C512.349 30.282 511.467 30.108 510.447 30.108C509.391 30.108 508.473 30.294 507.693 30.666C506.925 31.026 506.289 31.536 505.785 32.196C505.293 32.856 504.921 33.642 504.669 34.554C504.429 35.454 504.309 36.438 504.309 37.506L502.671 37.308C502.671 35.208 503.025 33.48 503.733 32.124C504.453 30.756 505.419 29.748 506.631 29.1C507.843 28.44 509.205 28.11 510.717 28.11C511.785 28.11 512.739 28.266 513.579 28.578C514.431 28.89 515.169 29.334 515.793 29.91C516.417 30.474 516.933 31.146 517.341 31.926C517.749 32.694 518.049 33.54 518.241 34.464C518.445 35.388 518.547 36.354 518.547 37.362V48H516.459ZM502.221 48V28.56H504.111V32.934H504.309V48H502.221ZM530.769 57.18C529.809 57.18 528.849 57.036 527.889 56.748C526.941 56.472 526.053 56.016 525.225 55.38C524.397 54.756 523.695 53.922 523.119 52.878L524.991 51.762C525.579 52.962 526.413 53.82 527.493 54.336C528.573 54.852 529.671 55.11 530.787 55.11C532.359 55.11 533.601 54.816 534.513 54.228C535.437 53.652 536.097 52.782 536.493 51.618C536.889 50.466 537.087 49.032 537.087 47.316V42.222H537.303V28.56H539.193V47.316C539.193 47.892 539.181 48.444 539.157 48.972C539.133 49.5 539.079 50.028 538.995 50.556C538.779 52.056 538.335 53.292 537.663 54.264C536.991 55.248 536.079 55.98 534.927 56.46C533.787 56.94 532.401 57.18 530.769 57.18ZM530.679 48.54C528.843 48.54 527.289 48.09 526.017 47.19C524.757 46.278 523.791 45.048 523.119 43.5C522.459 41.94 522.129 40.188 522.129 38.244C522.129 36.324 522.459 34.59 523.119 33.042C523.779 31.494 524.727 30.27 525.963 29.37C527.211 28.47 528.717 28.02 530.481 28.02C532.293 28.02 533.823 28.464 535.071 29.352C536.319 30.24 537.261 31.458 537.897 33.006C538.533 34.542 538.851 36.288 538.851 38.244C538.851 40.188 538.533 41.934 537.897 43.482C537.261 45.03 536.337 46.26 535.125 47.172C533.913 48.084 532.431 48.54 530.679 48.54ZM530.805 46.56C532.257 46.56 533.463 46.2 534.423 45.48C535.395 44.748 536.115 43.758 536.583 42.51C537.063 41.25 537.303 39.828 537.303 38.244C537.303 36.648 537.063 35.226 536.583 33.978C536.103 32.73 535.383 31.758 534.423 31.062C533.463 30.354 532.269 30 530.841 30C529.365 30 528.147 30.366 527.187 31.098C526.227 31.818 525.513 32.802 525.045 34.05C524.577 35.286 524.343 36.684 524.343 38.244C524.343 39.816 524.583 41.232 525.063 42.492C525.555 43.74 526.275 44.73 527.223 45.462C528.183 46.194 529.377 46.56 530.805 46.56Z" fill="#F2F2F2"/>
<rect x="619" y="403" width="165" height="69" rx="12" fill="#D435F0" fill-opacity="0.8"/>
<path d="M631.686 451V425.08H647.706V427.096H633.756V436.942H645.546V438.958H633.756V448.984H647.706V451H631.686ZM675.171 451L675.207 437.932C675.207 436.36 674.757 435.13 673.857 434.242C672.969 433.342 671.859 432.892 670.527 432.892C669.771 432.892 669.021 433.066 668.277 433.414C667.545 433.762 666.933 434.326 666.441 435.106C665.949 435.886 665.703 436.942 665.703 438.274L664.245 438.04C664.197 436.624 664.455 435.394 665.019 434.35C665.595 433.294 666.387 432.478 667.395 431.902C668.415 431.326 669.573 431.038 670.869 431.038C672.777 431.038 674.319 431.626 675.495 432.802C676.683 433.978 677.277 435.586 677.277 437.626L677.241 451H675.171ZM652.041 451V431.56H653.931V435.934H654.111V451H652.041ZM663.615 451L663.651 438.13C663.651 436.522 663.213 435.25 662.337 434.314C661.461 433.366 660.321 432.892 658.917 432.892C657.489 432.892 656.331 433.384 655.443 434.368C654.555 435.34 654.111 436.642 654.111 438.274L652.671 437.554C652.671 436.294 652.959 435.178 653.535 434.206C654.111 433.222 654.897 432.448 655.893 431.884C656.901 431.32 658.053 431.038 659.349 431.038C660.513 431.038 661.575 431.284 662.535 431.776C663.495 432.268 664.263 433.012 664.839 434.008C665.415 434.992 665.703 436.228 665.703 437.716L665.667 451H663.615ZM690.473 451.54C688.721 451.54 687.239 451.084 686.027 450.172C684.815 449.26 683.891 448.03 683.255 446.482C682.619 444.934 682.301 443.188 682.301 441.244C682.301 439.288 682.619 437.542 683.255 436.006C683.891 434.458 684.833 433.24 686.081 432.352C687.329 431.464 688.859 431.02 690.671 431.02C692.435 431.02 693.941 431.47 695.189 432.37C696.437 433.27 697.385 434.494 698.033 436.042C698.693 437.59 699.023 439.324 699.023 441.244C699.023 443.188 698.687 444.94 698.015 446.5C697.355 448.048 696.389 449.278 695.117 450.19C693.857 451.09 692.309 451.54 690.473 451.54ZM681.959 459.64V431.56H683.849V446.536H684.029V459.64H681.959ZM690.347 449.56C691.775 449.56 692.963 449.194 693.911 448.462C694.871 447.73 695.591 446.74 696.071 445.492C696.563 444.232 696.809 442.816 696.809 441.244C696.809 439.684 696.569 438.286 696.089 437.05C695.621 435.802 694.907 434.818 693.947 434.098C692.999 433.366 691.787 433 690.311 433C688.883 433 687.689 433.354 686.729 434.062C685.769 434.758 685.049 435.73 684.569 436.978C684.089 438.226 683.849 439.648 683.849 441.244C683.849 442.828 684.083 444.25 684.551 445.51C685.031 446.758 685.751 447.748 686.711 448.48C687.683 449.2 688.895 449.56 690.347 449.56ZM708.599 451.54C707.099 451.54 705.851 451.276 704.855 450.748C703.871 450.22 703.133 449.524 702.641 448.66C702.149 447.784 701.903 446.836 701.903 445.816C701.903 444.712 702.131 443.788 702.587 443.044C703.055 442.3 703.673 441.7 704.441 441.244C705.221 440.788 706.079 440.446 707.015 440.218C708.083 439.978 709.235 439.774 710.471 439.606C711.707 439.426 712.883 439.27 713.999 439.138C715.127 439.006 716.045 438.892 716.753 438.796L715.997 439.246C716.045 437.146 715.649 435.586 714.809 434.566C713.981 433.534 712.517 433.018 710.417 433.018C708.941 433.018 707.723 433.354 706.763 434.026C705.815 434.686 705.149 435.712 704.765 437.104L702.641 436.51C703.085 434.746 703.979 433.39 705.323 432.442C706.667 431.494 708.389 431.02 710.489 431.02C712.277 431.02 713.777 431.368 714.989 432.064C716.213 432.76 717.065 433.738 717.545 434.998C717.749 435.514 717.887 436.12 717.959 436.816C718.031 437.5 718.067 438.19 718.067 438.886V451H716.177V445.888L716.879 446.068C716.291 447.82 715.265 449.17 713.801 450.118C712.337 451.066 710.603 451.54 708.599 451.54ZM708.707 449.632C710.027 449.632 711.185 449.398 712.181 448.93C713.177 448.45 713.981 447.784 714.593 446.932C715.217 446.068 715.613 445.054 715.781 443.89C715.901 443.242 715.967 442.54 715.979 441.784C715.991 441.028 715.997 440.47 715.997 440.11L716.897 440.686C716.117 440.782 715.181 440.884 714.089 440.992C713.009 441.1 711.905 441.232 710.777 441.388C709.649 441.544 708.629 441.742 707.717 441.982C707.153 442.138 706.583 442.366 706.007 442.666C705.443 442.954 704.969 443.356 704.585 443.872C704.213 444.388 704.027 445.042 704.027 445.834C704.027 446.422 704.171 447.01 704.459 447.598C704.759 448.186 705.251 448.672 705.935 449.056C706.619 449.44 707.543 449.632 708.707 449.632ZM733.055 451C732.023 451.228 731.003 451.312 729.995 451.252C728.987 451.204 728.087 450.982 727.295 450.586C726.515 450.178 725.927 449.554 725.531 448.714C725.207 448.03 725.027 447.34 724.991 446.644C724.955 445.948 724.937 445.15 724.937 444.25V426.16H727.025V444.214C727.025 445.03 727.031 445.708 727.043 446.248C727.067 446.776 727.193 447.262 727.421 447.706C727.853 448.534 728.537 449.038 729.473 449.218C730.409 449.386 731.603 449.356 733.055 449.128V451ZM720.581 433.45V431.56H733.055V433.45H720.581ZM751.006 451V440.884C751.006 439.66 750.88 438.568 750.628 437.608C750.388 436.648 750.016 435.832 749.512 435.16C749.02 434.488 748.396 433.978 747.64 433.63C746.896 433.282 746.014 433.108 744.994 433.108C743.938 433.108 743.02 433.294 742.24 433.666C741.472 434.026 740.836 434.536 740.332 435.196C739.84 435.856 739.468 436.642 739.216 437.554C738.976 438.454 738.856 439.438 738.856 440.506L737.218 440.308C737.218 438.208 737.572 436.48 738.28 435.124C739 433.756 739.966 432.748 741.178 432.1C742.39 431.44 743.752 431.11 745.264 431.11C746.332 431.11 747.286 431.266 748.126 431.578C748.978 431.89 749.716 432.334 750.34 432.91C750.964 433.474 751.48 434.146 751.888 434.926C752.296 435.694 752.596 436.54 752.788 437.464C752.992 438.388 753.094 439.354 753.094 440.362V451H751.006ZM736.768 451V425.08H738.658V440.056H738.856V451H736.768ZM760.6 459.64L764.38 449.47L764.416 452.494L755.902 431.56H758.116L765.424 449.74H764.272L770.914 431.56H773.092L762.76 459.64H760.6Z" fill="#F2F2F2"/>
<rect y="403" width="241" height="69" rx="12" fill="#1397FC" fill-opacity="0.8"/>
<path d="M21.6247 451.54C19.8487 451.54 18.2467 451.246 16.8187 450.658C15.4027 450.07 14.2267 449.236 13.2907 448.156C12.3667 447.076 11.7487 445.792 11.4367 444.304L13.5607 443.944C14.0047 445.672 14.9527 447.034 16.4047 448.03C17.8687 449.026 19.6267 449.524 21.6787 449.524C23.0707 449.524 24.3007 449.302 25.3687 448.858C26.4367 448.414 27.2707 447.79 27.8707 446.986C28.4707 446.17 28.7707 445.222 28.7707 444.142C28.7707 443.362 28.6267 442.708 28.3387 442.18C28.0627 441.652 27.7027 441.22 27.2587 440.884C26.8147 440.536 26.3407 440.26 25.8367 440.056C25.3327 439.84 24.8587 439.666 24.4147 439.534L17.8987 437.59C17.0347 437.338 16.2607 437.026 15.5767 436.654C14.9047 436.27 14.3347 435.832 13.8667 435.34C13.4107 434.836 13.0567 434.266 12.8047 433.63C12.5647 432.994 12.4447 432.286 12.4447 431.506C12.4447 430.114 12.8167 428.896 13.5607 427.852C14.3047 426.808 15.3247 425.998 16.6207 425.422C17.9287 424.834 19.4287 424.54 21.1207 424.54C22.8247 424.552 24.3547 424.87 25.7107 425.494C27.0667 426.106 28.1767 426.976 29.0407 428.104C29.9167 429.232 30.4807 430.57 30.7327 432.118L28.5907 432.496C28.4227 431.308 27.9907 430.27 27.2947 429.382C26.6107 428.494 25.7347 427.804 24.6667 427.312C23.5987 426.82 22.4107 426.574 21.1027 426.574C19.8427 426.562 18.7267 426.772 17.7547 427.204C16.7947 427.636 16.0387 428.218 15.4867 428.95C14.9347 429.682 14.6587 430.51 14.6587 431.434C14.6587 432.394 14.9167 433.162 15.4327 433.738C15.9607 434.302 16.6027 434.746 17.3587 435.07C18.1267 435.394 18.8587 435.658 19.5547 435.862L24.7747 437.41C25.2667 437.554 25.8547 437.758 26.5387 438.022C27.2227 438.286 27.8947 438.664 28.5547 439.156C29.2147 439.636 29.7607 440.278 30.1927 441.082C30.6367 441.874 30.8587 442.87 30.8587 444.07C30.8587 445.234 30.6367 446.278 30.1927 447.202C29.7487 448.126 29.1127 448.912 28.2847 449.56C27.4567 450.196 26.4787 450.682 25.3507 451.018C24.2227 451.366 22.9807 451.54 21.6247 451.54ZM41.9841 451.45C40.9161 451.45 39.9561 451.294 39.1041 450.982C38.2641 450.67 37.5321 450.232 36.9081 449.668C36.2841 449.092 35.7681 448.42 35.3601 447.652C34.9521 446.872 34.6461 446.02 34.4421 445.096C34.2501 444.172 34.1541 443.206 34.1541 442.198V431.56H36.2421V441.676C36.2421 442.9 36.3621 443.992 36.6021 444.952C36.8541 445.912 37.2261 446.728 37.7181 447.4C38.2221 448.072 38.8461 448.582 39.5901 448.93C40.3461 449.278 41.2341 449.452 42.2541 449.452C43.3101 449.452 44.2221 449.272 44.9901 448.912C45.7701 448.54 46.4061 448.024 46.8981 447.364C47.4021 446.704 47.7741 445.924 48.0141 445.024C48.2661 444.112 48.3921 443.122 48.3921 442.054L50.0301 442.252C50.0301 444.352 49.6701 446.086 48.9501 447.454C48.2421 448.81 47.2821 449.818 46.0701 450.478C44.8581 451.126 43.4961 451.45 41.9841 451.45ZM48.5901 451V446.626H48.3921V431.56H50.4801V451H48.5901ZM62.6844 451.504C60.4404 451.504 58.5864 451.03 57.1224 450.082C55.6704 449.134 54.7704 447.814 54.4224 446.122L56.5464 445.762C56.8464 446.914 57.5544 447.832 58.6704 448.516C59.7864 449.2 61.1544 449.542 62.7744 449.542C64.3824 449.542 65.6604 449.2 66.6084 448.516C67.5564 447.832 68.0304 446.896 68.0304 445.708C68.0304 445.06 67.8804 444.532 67.5804 444.124C67.2924 443.704 66.7164 443.32 65.8524 442.972C64.9884 442.624 63.7044 442.216 62.0004 441.748C60.2004 441.268 58.7904 440.788 57.7704 440.308C56.7624 439.828 56.0484 439.282 55.6284 438.67C55.2204 438.058 55.0164 437.308 55.0164 436.42C55.0164 435.352 55.3224 434.416 55.9344 433.612C56.5464 432.796 57.3984 432.16 58.4904 431.704C59.5944 431.248 60.8664 431.02 62.3064 431.02C63.7464 431.02 65.0424 431.26 66.1944 431.74C67.3464 432.208 68.2764 432.868 68.9844 433.72C69.6924 434.56 70.1004 435.538 70.2084 436.654L68.0844 437.05C67.8804 435.802 67.2504 434.818 66.1944 434.098C65.1384 433.366 63.8184 432.994 62.2344 432.982C60.7344 432.958 59.5104 433.258 58.5624 433.882C57.6144 434.494 57.1404 435.304 57.1404 436.312C57.1404 436.888 57.3024 437.38 57.6264 437.788C57.9624 438.184 58.5504 438.55 59.3904 438.886C60.2304 439.222 61.4184 439.582 62.9544 439.966C64.8264 440.446 66.2844 440.938 67.3284 441.442C68.3844 441.946 69.1284 442.54 69.5604 443.224C69.9924 443.896 70.2084 444.73 70.2084 445.726C70.2084 447.526 69.5364 448.942 68.1924 449.974C66.8604 450.994 65.0244 451.504 62.6844 451.504ZM84.5195 451C83.4875 451.228 82.4675 451.312 81.4595 451.252C80.4515 451.204 79.5515 450.982 78.7595 450.586C77.9795 450.178 77.3915 449.554 76.9955 448.714C76.6715 448.03 76.4915 447.34 76.4555 446.644C76.4195 445.948 76.4015 445.15 76.4015 444.25V426.16H78.4895V444.214C78.4895 445.03 78.4955 445.708 78.5075 446.248C78.5315 446.776 78.6575 447.262 78.8855 447.706C79.3175 448.534 80.0015 449.038 80.9375 449.218C81.8735 449.386 83.0675 449.356 84.5195 449.128V451ZM72.0455 433.45V431.56H84.5195V433.45H72.0455ZM93.8489 451.54C92.3489 451.54 91.1009 451.276 90.1049 450.748C89.1209 450.22 88.3829 449.524 87.8909 448.66C87.3989 447.784 87.1529 446.836 87.1529 445.816C87.1529 444.712 87.3809 443.788 87.8369 443.044C88.3049 442.3 88.9229 441.7 89.6909 441.244C90.4709 440.788 91.3289 440.446 92.2649 440.218C93.3329 439.978 94.4849 439.774 95.7209 439.606C96.9569 439.426 98.1329 439.27 99.2489 439.138C100.377 439.006 101.295 438.892 102.003 438.796L101.247 439.246C101.295 437.146 100.899 435.586 100.059 434.566C99.2309 433.534 97.7669 433.018 95.6669 433.018C94.1909 433.018 92.9729 433.354 92.0129 434.026C91.0649 434.686 90.3989 435.712 90.0149 437.104L87.8909 436.51C88.3349 434.746 89.2289 433.39 90.5729 432.442C91.9169 431.494 93.6389 431.02 95.7389 431.02C97.5269 431.02 99.0269 431.368 100.239 432.064C101.463 432.76 102.315 433.738 102.795 434.998C102.999 435.514 103.137 436.12 103.209 436.816C103.281 437.5 103.317 438.19 103.317 438.886V451H101.427V445.888L102.129 446.068C101.541 447.82 100.515 449.17 99.0509 450.118C97.5869 451.066 95.8529 451.54 93.8489 451.54ZM93.9569 449.632C95.2769 449.632 96.4349 449.398 97.4309 448.93C98.4269 448.45 99.2309 447.784 99.8429 446.932C100.467 446.068 100.863 445.054 101.031 443.89C101.151 443.242 101.217 442.54 101.229 441.784C101.241 441.028 101.247 440.47 101.247 440.11L102.147 440.686C101.367 440.782 100.431 440.884 99.3389 440.992C98.2589 441.1 97.1549 441.232 96.0269 441.388C94.8989 441.544 93.8789 441.742 92.9669 441.982C92.4029 442.138 91.8329 442.366 91.2569 442.666C90.6929 442.954 90.2189 443.356 89.8349 443.872C89.4629 444.388 89.2769 445.042 89.2769 445.834C89.2769 446.422 89.4209 447.01 89.7089 447.598C90.0089 448.186 90.5009 448.672 91.1849 449.056C91.8689 449.44 92.7929 449.632 93.9569 449.632ZM108.351 427.636V424.99H110.421V427.636H108.351ZM108.351 451V431.56H110.421V451H108.351ZM130.069 451V440.884C130.069 439.66 129.943 438.568 129.691 437.608C129.451 436.648 129.079 435.832 128.575 435.16C128.083 434.488 127.459 433.978 126.703 433.63C125.959 433.282 125.077 433.108 124.057 433.108C123.001 433.108 122.083 433.294 121.303 433.666C120.535 434.026 119.899 434.536 119.395 435.196C118.903 435.856 118.531 436.642 118.279 437.554C118.039 438.454 117.919 439.438 117.919 440.506L116.281 440.308C116.281 438.208 116.635 436.48 117.343 435.124C118.063 433.756 119.029 432.748 120.241 432.1C121.453 431.44 122.815 431.11 124.327 431.11C125.395 431.11 126.349 431.266 127.189 431.578C128.041 431.89 128.779 432.334 129.403 432.91C130.027 433.474 130.543 434.146 130.951 434.926C131.359 435.694 131.659 436.54 131.851 437.464C132.055 438.388 132.157 439.354 132.157 440.362V451H130.069ZM115.831 451V431.56H117.721V435.934H117.919V451H115.831ZM142.435 451.54C140.935 451.54 139.687 451.276 138.691 450.748C137.707 450.22 136.969 449.524 136.477 448.66C135.985 447.784 135.739 446.836 135.739 445.816C135.739 444.712 135.967 443.788 136.423 443.044C136.891 442.3 137.509 441.7 138.277 441.244C139.057 440.788 139.915 440.446 140.851 440.218C141.919 439.978 143.071 439.774 144.307 439.606C145.543 439.426 146.719 439.27 147.835 439.138C148.963 439.006 149.881 438.892 150.589 438.796L149.833 439.246C149.881 437.146 149.485 435.586 148.645 434.566C147.817 433.534 146.353 433.018 144.253 433.018C142.777 433.018 141.559 433.354 140.599 434.026C139.651 434.686 138.985 435.712 138.601 437.104L136.477 436.51C136.921 434.746 137.815 433.39 139.159 432.442C140.503 431.494 142.225 431.02 144.325 431.02C146.113 431.02 147.613 431.368 148.825 432.064C150.049 432.76 150.901 433.738 151.381 434.998C151.585 435.514 151.723 436.12 151.795 436.816C151.867 437.5 151.903 438.19 151.903 438.886V451H150.013V445.888L150.715 446.068C150.127 447.82 149.101 449.17 147.637 450.118C146.173 451.066 144.439 451.54 142.435 451.54ZM142.543 449.632C143.863 449.632 145.021 449.398 146.017 448.93C147.013 448.45 147.817 447.784 148.429 446.932C149.053 446.068 149.449 445.054 149.617 443.89C149.737 443.242 149.803 442.54 149.815 441.784C149.827 441.028 149.833 440.47 149.833 440.11L150.733 440.686C149.953 440.782 149.017 440.884 147.925 440.992C146.845 441.1 145.741 441.232 144.613 441.388C143.485 441.544 142.465 441.742 141.553 441.982C140.989 442.138 140.419 442.366 139.843 442.666C139.279 442.954 138.805 443.356 138.421 443.872C138.049 444.388 137.863 445.042 137.863 445.834C137.863 446.422 138.007 447.01 138.295 447.598C138.595 448.186 139.087 448.672 139.771 449.056C140.455 449.44 141.379 449.632 142.543 449.632ZM165.091 451.54C163.339 451.54 161.857 451.084 160.645 450.172C159.433 449.26 158.509 448.03 157.873 446.482C157.237 444.934 156.919 443.188 156.919 441.244C156.919 439.288 157.237 437.542 157.873 436.006C158.509 434.458 159.451 433.24 160.699 432.352C161.947 431.464 163.477 431.02 165.289 431.02C167.053 431.02 168.559 431.47 169.807 432.37C171.055 433.27 172.003 434.494 172.651 436.042C173.311 437.59 173.641 439.324 173.641 441.244C173.641 443.188 173.305 444.94 172.633 446.5C171.973 448.048 171.007 449.278 169.735 450.19C168.475 451.09 166.927 451.54 165.091 451.54ZM156.577 451V425.08H158.647V436.024H158.467V451H156.577ZM164.965 449.56C166.393 449.56 167.581 449.194 168.529 448.462C169.489 447.73 170.209 446.74 170.689 445.492C171.181 444.232 171.427 442.816 171.427 441.244C171.427 439.684 171.187 438.286 170.707 437.05C170.239 435.802 169.525 434.818 168.565 434.098C167.617 433.366 166.405 433 164.929 433C163.501 433 162.307 433.354 161.347 434.062C160.387 434.758 159.667 435.73 159.187 436.978C158.707 438.226 158.467 439.648 158.467 441.244C158.467 442.828 158.701 444.25 159.169 445.51C159.649 446.758 160.369 447.748 161.329 448.48C162.301 449.2 163.513 449.56 164.965 449.56ZM177.96 427.636V424.99H180.03V427.636H177.96ZM177.96 451V431.56H180.03V451H177.96ZM185.8 451V424.54H187.87V451H185.8ZM193.64 427.636V424.99H195.71V427.636H193.64ZM193.64 451V431.56H195.71V451H193.64ZM211.434 451C210.402 451.228 209.382 451.312 208.374 451.252C207.366 451.204 206.466 450.982 205.674 450.586C204.894 450.178 204.306 449.554 203.91 448.714C203.586 448.03 203.406 447.34 203.37 446.644C203.334 445.948 203.316 445.15 203.316 444.25V426.16H205.404V444.214C205.404 445.03 205.41 445.708 205.422 446.248C205.446 446.776 205.572 447.262 205.8 447.706C206.232 448.534 206.916 449.038 207.852 449.218C208.788 449.386 209.982 449.356 211.434 449.128V451ZM198.96 433.45V431.56H211.434V433.45H198.96ZM217.464 459.64L221.244 449.47L221.28 452.494L212.766 431.56H214.98L222.288 449.74H221.136L227.778 431.56H229.956L219.624 459.64H217.464Z" fill="#F2F2F2"/>
<defs>
<filter id="filter0_n_5944_1516" x="169" y="32" width="500" height="500" filterUnits="userSpaceOnUse" color-interpolation-filters="sRGB">
<feFlood flood-opacity="0" result="BackgroundImageFix"/>
<feBlend mode="normal" in="SourceGraphic" in2="BackgroundImageFix" result="shape"/>
<feTurbulence type="fractalNoise" baseFrequency="inf inf" stitchTiles="stitch" numOctaves="3" result="noise" seed="10" />
<feColorMatrix in="noise" type="luminanceToAlpha" result="alphaNoise" />
<feComponentTransfer in="alphaNoise" result="coloredNoise1">
<feFuncA type="discrete" tableValues="1 1 1 1 1 1 1 1 1 1 1 1 1 1 1 1 1 1 1 1 1 1 1 1 1 1 1 1 1 1 1 1 1 1 1 1 1 1 1 1 1 1 1 1 1 1 1 1 1 1 1 0 0 0 0 0 0 0 0 0 0 0 0 0 0 0 0 0 0 0 0 0 0 0 0 0 0 0 0 0 0 0 0 0 0 0 0 0 0 0 0 0 0 0 0 0 0 0 0 0 "/>
</feComponentTransfer>
<feComposite operator="in" in2="shape" in="coloredNoise1" result="noise1Clipped" />
<feFlood flood-color="rgba(0, 0, 0, 0.25)" result="color1Flood" />
<feComposite operator="in" in2="noise1Clipped" in="color1Flood" result="color1" />
<feMerge result="effect1_noise_5944_1516">
<feMergeNode in="shape" />
<feMergeNode in="color1" />
</feMerge>
</filter>
<linearGradient id="paint0_linear_5944_1516" x1="303.859" y1="417.389" x2="433.4" y2="114.672" gradientUnits="userSpaceOnUse">
<stop stop-color="#0C6D7A"/>
<stop offset="0.00784314" stop-color="#0C6F7C"/>
<stop offset="0.239216" stop-color="#14BCD4"/>
<stop offset="0.482353" stop-color="#06DEFC"/>
<stop offset="0.545098" stop-color="#04E0FF"/>
<stop offset="0.831373" stop-color="#0FBBD4"/>
<stop offset="1" stop-color="#0D7684"/>
</linearGradient>
<linearGradient id="paint1_linear_5944_1516" x1="178.604" y1="216.511" x2="481.508" y2="546.6" gradientUnits="userSpaceOnUse">
<stop stop-color="#0C6D7A"/>
<stop offset="0.00784314" stop-color="#0C6F7C"/>
<stop offset="0.239216" stop-color="#14BCD4"/>
<stop offset="0.509804" stop-color="#04E0FF"/>
<stop offset="0.831373" stop-color="#0FBBD4"/>
<stop offset="1" stop-color="#0D7684"/>
</linearGradient>
<linearGradient id="paint2_linear_5944_1516" x1="374.793" y1="-4.66803" x2="609.668" y2="357.389" gradientUnits="userSpaceOnUse">
<stop stop-color="#0C6D7A"/>
<stop offset="0.00784314" stop-color="#0C6F7C"/>
<stop offset="0.239216" stop-color="#14BCD4"/>
<stop offset="0.509804" stop-color="#04E0FF"/>
<stop offset="0.831373" stop-color="#0FBBD4"/>
<stop offset="1" stop-color="#0D7684"/>
</linearGradient>
</defs>
</svg>
